<svg width="706" height="706" viewBox="0 0 706 706" fill="none" xmlns="http://www.w3.org/2000/svg">
<g opacity="0.15">
<path d="M64.7959 0.750532H0.750532V64.7959H64.7959V0.750532Z" stroke="white" stroke-width="1.5"/>
<path d="M128.841 0.750532H64.7959V64.7959H128.841V0.750532Z" stroke="white" stroke-width="1.5"/>
<path d="M192.887 0.750532H128.841V64.7959H192.887V0.750532Z" stroke="white" stroke-width="1.5"/>
<path d="M256.932 0.750532H192.887V64.7959H256.932V0.750532Z" stroke="white" stroke-width="1.5"/>
<path d="M320.977 0.750532H256.932V64.7959H320.977V0.750532Z" stroke="white" stroke-width="1.5"/>
<path d="M385.023 0.750532H320.977V64.7959H385.023V0.750532Z" stroke="white" stroke-width="1.5"/>
<path d="M449.068 0.750532H385.023V64.7959H449.068V0.750532Z" stroke="white" stroke-width="1.5"/>
<path d="M513.113 0.750532H449.068V64.7959H513.113V0.750532Z" stroke="white" stroke-width="1.5"/>
<path d="M577.159 0.750532H513.113V64.7959H577.159V0.750532Z" stroke="white" stroke-width="1.5"/>
<path d="M641.204 0.750532H577.159V64.7959H641.204V0.750532Z" stroke="white" stroke-width="1.5"/>
<path d="M705.249 0.750532H641.204V64.7959H705.249V0.750532Z" stroke="white" stroke-width="1.5"/>
<path d="M64.7959 64.7959H0.750532V128.841H64.7959V64.7959Z" stroke="white" stroke-width="1.5"/>
<path d="M128.841 64.7959H64.7959V128.841H128.841V64.7959Z" stroke="white" stroke-width="1.5"/>
<path d="M192.887 64.7959H128.841V128.841H192.887V64.7959Z" stroke="white" stroke-width="1.5"/>
<path d="M256.932 64.7959H192.887V128.841H256.932V64.7959Z" stroke="white" stroke-width="1.5"/>
<path d="M320.977 64.7959H256.932V128.841H320.977V64.7959Z" stroke="white" stroke-width="1.5"/>
<path d="M385.023 64.7959H320.977V128.841H385.023V64.7959Z" stroke="white" stroke-width="1.5"/>
<path d="M449.068 64.7959H385.023V128.841H449.068V64.7959Z" stroke="white" stroke-width="1.5"/>
<path d="M513.113 64.7959H449.068V128.841H513.113V64.7959Z" stroke="white" stroke-width="1.5"/>
<path d="M577.159 64.7959H513.113V128.841H577.159V64.7959Z" stroke="white" stroke-width="1.5"/>
<path d="M641.204 64.7959H577.159V128.841H641.204V64.7959Z" stroke="white" stroke-width="1.5"/>
<path d="M705.249 64.7959H641.204V128.841H705.249V64.7959Z" stroke="white" stroke-width="1.5"/>
<path d="M64.7959 128.841H0.750532V192.887H64.7959V128.841Z" stroke="white" stroke-width="1.5"/>
<path d="M128.841 128.841H64.7959V192.887H128.841V128.841Z" stroke="white" stroke-width="1.5"/>
<path d="M192.887 128.841H128.841V192.887H192.887V128.841Z" stroke="white" stroke-width="1.5"/>
<path d="M256.932 128.841H192.887V192.887H256.932V128.841Z" stroke="white" stroke-width="1.5"/>
<path d="M320.977 128.841H256.932V192.887H320.977V128.841Z" stroke="white" stroke-width="1.5"/>
<path d="M385.023 128.841H320.977V192.887H385.023V128.841Z" stroke="white" stroke-width="1.5"/>
<path d="M449.068 128.841H385.023V192.887H449.068V128.841Z" stroke="white" stroke-width="1.5"/>
<path d="M513.113 128.841H449.068V192.887H513.113V128.841Z" stroke="white" stroke-width="1.5"/>
<path d="M577.159 128.841H513.113V192.887H577.159V128.841Z" stroke="white" stroke-width="1.5"/>
<path d="M641.204 128.841H577.159V192.887H641.204V128.841Z" stroke="white" stroke-width="1.5"/>
<path d="M705.249 128.841H641.204V192.887H705.249V128.841Z" stroke="white" stroke-width="1.5"/>
<path d="M64.7959 192.887H0.750532V256.932H64.7959V192.887Z" stroke="white" stroke-width="1.5"/>
<path d="M128.841 192.887H64.7959V256.932H128.841V192.887Z" stroke="white" stroke-width="1.5"/>
<path d="M192.887 192.887H128.841V256.932H192.887V192.887Z" stroke="white" stroke-width="1.5"/>
<path d="M256.932 192.887H192.887V256.932H256.932V192.887Z" stroke="white" stroke-width="1.5"/>
<path d="M320.977 192.887H256.932V256.932H320.977V192.887Z" stroke="white" stroke-width="1.5"/>
<path d="M385.023 192.887H320.977V256.932H385.023V192.887Z" stroke="white" stroke-width="1.5"/>
<path d="M449.068 192.887H385.023V256.932H449.068V192.887Z" stroke="white" stroke-width="1.5"/>
<path d="M513.113 192.887H449.068V256.932H513.113V192.887Z" stroke="white" stroke-width="1.5"/>
<path d="M577.159 192.887H513.113V256.932H577.159V192.887Z" stroke="white" stroke-width="1.5"/>
<path d="M641.204 192.887H577.159V256.932H641.204V192.887Z" stroke="white" stroke-width="1.5"/>
<path d="M705.249 192.887H641.204V256.932H705.249V192.887Z" stroke="white" stroke-width="1.5"/>
<path d="M64.7959 256.932H0.750532V320.977H64.7959V256.932Z" stroke="white" stroke-width="1.5"/>
<path d="M128.841 256.932H64.7959V320.977H128.841V256.932Z" stroke="white" stroke-width="1.5"/>
<path d="M192.887 256.932H128.841V320.977H192.887V256.932Z" stroke="white" stroke-width="1.5"/>
<path d="M256.932 256.932H192.887V320.977H256.932V256.932Z" stroke="white" stroke-width="1.5"/>
<path d="M320.977 256.932H256.932V320.977H320.977V256.932Z" stroke="white" stroke-width="1.5"/>
<path d="M385.023 256.932H320.977V320.977H385.023V256.932Z" stroke="white" stroke-width="1.5"/>
<path d="M449.068 256.932H385.023V320.977H449.068V256.932Z" stroke="white" stroke-width="1.5"/>
<path d="M513.113 256.932H449.068V320.977H513.113V256.932Z" stroke="white" stroke-width="1.5"/>
<path d="M577.159 256.932H513.113V320.977H577.159V256.932Z" stroke="white" stroke-width="1.5"/>
<path d="M641.204 256.932H577.159V320.977H641.204V256.932Z" stroke="white" stroke-width="1.5"/>
<path d="M705.249 256.932H641.204V320.977H705.249V256.932Z" stroke="white" stroke-width="1.5"/>
<path d="M64.7959 320.977H0.750532V385.023H64.7959V320.977Z" stroke="white" stroke-width="1.5"/>
<path d="M128.841 320.977H64.7959V385.023H128.841V320.977Z" stroke="white" stroke-width="1.5"/>
<path d="M192.887 320.977H128.841V385.023H192.887V320.977Z" stroke="white" stroke-width="1.5"/>
<path d="M256.932 320.977H192.887V385.023H256.932V320.977Z" stroke="white" stroke-width="1.5"/>
<path d="M320.977 320.977H256.932V385.023H320.977V320.977Z" stroke="white" stroke-width="1.5"/>
<path d="M385.023 320.977H320.977V385.023H385.023V320.977Z" stroke="white" stroke-width="1.5"/>
<path d="M449.068 320.977H385.023V385.023H449.068V320.977Z" stroke="white" stroke-width="1.5"/>
<path d="M513.113 320.977H449.068V385.023H513.113V320.977Z" stroke="white" stroke-width="1.5"/>
<path d="M577.159 320.977H513.113V385.023H577.159V320.977Z" stroke="white" stroke-width="1.5"/>
<path d="M641.204 320.977H577.159V385.023H641.204V320.977Z" stroke="white" stroke-width="1.5"/>
<path d="M705.249 320.977H641.204V385.023H705.249V320.977Z" stroke="white" stroke-width="1.5"/>
<path d="M64.7959 385.023H0.750532V449.068H64.7959V385.023Z" stroke="white" stroke-width="1.5"/>
<path d="M128.841 385.023H64.7959V449.068H128.841V385.023Z" stroke="white" stroke-width="1.5"/>
<path d="M192.887 385.023H128.841V449.068H192.887V385.023Z" stroke="white" stroke-width="1.5"/>
<path d="M256.932 385.023H192.887V449.068H256.932V385.023Z" stroke="white" stroke-width="1.5"/>
<path d="M320.977 385.023H256.932V449.068H320.977V385.023Z" stroke="white" stroke-width="1.5"/>
<path d="M385.023 385.023H320.977V449.068H385.023V385.023Z" stroke="white" stroke-width="1.5"/>
<path d="M449.068 385.023H385.023V449.068H449.068V385.023Z" stroke="white" stroke-width="1.5"/>
<path d="M513.113 385.023H449.068V449.068H513.113V385.023Z" stroke="white" stroke-width="1.5"/>
<path d="M577.159 385.023H513.113V449.068H577.159V385.023Z" stroke="white" stroke-width="1.5"/>
<path d="M641.204 385.023H577.159V449.068H641.204V385.023Z" stroke="white" stroke-width="1.5"/>
<path d="M705.249 385.023H641.204V449.068H705.249V385.023Z" stroke="white" stroke-width="1.5"/>
<path d="M64.7959 449.068H0.750532V513.113H64.7959V449.068Z" stroke="white" stroke-width="1.5"/>
<path d="M128.841 449.068H64.7959V513.113H128.841V449.068Z" stroke="white" stroke-width="1.5"/>
<path d="M192.887 449.068H128.841V513.113H192.887V449.068Z" stroke="white" stroke-width="1.5"/>
<path d="M256.932 449.068H192.887V513.113H256.932V449.068Z" stroke="white" stroke-width="1.5"/>
<path d="M320.977 449.068H256.932V513.113H320.977V449.068Z" stroke="white" stroke-width="1.5"/>
<path d="M385.023 449.068H320.977V513.113H385.023V449.068Z" stroke="white" stroke-width="1.5"/>
<path d="M449.068 449.068H385.023V513.113H449.068V449.068Z" stroke="white" stroke-width="1.5"/>
<path d="M513.113 449.068H449.068V513.113H513.113V449.068Z" stroke="white" stroke-width="1.5"/>
<path d="M577.159 449.068H513.113V513.113H577.159V449.068Z" stroke="white" stroke-width="1.5"/>
<path d="M641.204 449.068H577.159V513.113H641.204V449.068Z" stroke="white" stroke-width="1.5"/>
<path d="M705.249 449.068H641.204V513.113H705.249V449.068Z" stroke="white" stroke-width="1.5"/>
<path d="M64.7959 513.113H0.750532V577.159H64.7959V513.113Z" stroke="white" stroke-width="1.5"/>
<path d="M128.841 513.113H64.7959V577.159H128.841V513.113Z" stroke="white" stroke-width="1.5"/>
<path d="M192.887 513.113H128.841V577.159H192.887V513.113Z" stroke="white" stroke-width="1.5"/>
<path d="M256.932 513.113H192.887V577.159H256.932V513.113Z" stroke="white" stroke-width="1.5"/>
<path d="M320.977 513.113H256.932V577.159H320.977V513.113Z" stroke="white" stroke-width="1.5"/>
<path d="M385.023 513.113H320.977V577.159H385.023V513.113Z" stroke="white" stroke-width="1.5"/>
<path d="M449.068 513.113H385.023V577.159H449.068V513.113Z" stroke="white" stroke-width="1.5"/>
<path d="M513.113 513.113H449.068V577.159H513.113V513.113Z" stroke="white" stroke-width="1.5"/>
<path d="M577.159 513.113H513.113V577.159H577.159V513.113Z" stroke="white" stroke-width="1.5"/>
<path d="M641.204 513.113H577.159V577.159H641.204V513.113Z" stroke="white" stroke-width="1.5"/>
<path d="M705.249 513.113H641.204V577.159H705.249V513.113Z" stroke="white" stroke-width="1.5"/>
<path d="M64.7959 577.159H0.750532V641.204H64.7959V577.159Z" stroke="white" stroke-width="1.5"/>
<path d="M128.841 577.159H64.7959V641.204H128.841V577.159Z" stroke="white" stroke-width="1.5"/>
<path d="M192.887 577.159H128.841V641.204H192.887V577.159Z" stroke="white" stroke-width="1.5"/>
<path d="M256.932 577.159H192.887V641.204H256.932V577.159Z" stroke="white" stroke-width="1.5"/>
<path d="M320.977 577.159H256.932V641.204H320.977V577.159Z" stroke="white" stroke-width="1.5"/>
<path d="M385.023 577.159H320.977V641.204H385.023V577.159Z" stroke="white" stroke-width="1.5"/>
<path d="M449.068 577.159H385.023V641.204H449.068V577.159Z" stroke="white" stroke-width="1.5"/>
<path d="M513.113 577.159H449.068V641.204H513.113V577.159Z" stroke="white" stroke-width="1.5"/>
<path d="M577.159 577.159H513.113V641.204H577.159V577.159Z" stroke="white" stroke-width="1.5"/>
<path d="M641.204 577.159H577.159V641.204H641.204V577.159Z" stroke="white" stroke-width="1.5"/>
<path d="M705.249 577.159H641.204V641.204H705.249V577.159Z" stroke="white" stroke-width="1.5"/>
<path d="M64.7959 641.204H0.750532V705.249H64.7959V641.204Z" stroke="white" stroke-width="1.5"/>
<path d="M128.841 641.204H64.7959V705.249H128.841V641.204Z" stroke="white" stroke-width="1.5"/>
<path d="M192.887 641.204H128.841V705.249H192.887V641.204Z" stroke="white" stroke-width="1.5"/>
<path d="M256.932 641.204H192.887V705.249H256.932V641.204Z" stroke="white" stroke-width="1.5"/>
<path d="M320.977 641.204H256.932V705.249H320.977V641.204Z" stroke="white" stroke-width="1.5"/>
<path d="M385.023 641.204H320.977V705.249H385.023V641.204Z" stroke="white" stroke-width="1.5"/>
<path d="M449.068 641.204H385.023V705.249H449.068V641.204Z" stroke="white" stroke-width="1.5"/>
<path d="M513.113 641.204H449.068V705.249H513.113V641.204Z" stroke="white" stroke-width="1.5"/>
<path d="M577.159 641.204H513.113V705.249H577.159V641.204Z" stroke="white" stroke-width="1.5"/>
<path d="M641.204 641.204H577.159V705.249H641.204V641.204Z" stroke="white" stroke-width="1.5"/>
<path d="M705.249 641.204H641.204V705.249H705.249V641.204Z" stroke="white" stroke-width="1.5"/>
</g>
</svg>
