<svg width="480" height="288" viewBox="0 0 480 288" fill="none" xmlns="http://www.w3.org/2000/svg">
<g clipPath="url(#clip0_2029_7156)">
<path d="M16 0C16 0 16.8828 8.23992 20.3214 11.6786C23.7601 15.1172 32 16 32 16C32 16 23.7601 16.8828 20.3214 20.3214C16.8828 23.7601 16 32 16 32C16 32 15.1172 23.7601 11.6786 20.3214C8.23992 16.8828 0 16 0 16C0 16 8.23992 15.1172 11.6786 11.6786C15.1172 8.23992 16 0 16 0Z" fill="#FFE934"/>
</g>
<g clipPath="url(#clip1_2029_7156)">
<path d="M464 256C464 256 464.883 264.24 468.321 267.679C471.76 271.117 480 272 480 272C480 272 471.76 272.883 468.321 276.321C464.883 279.76 464 288 464 288C464 288 463.117 279.76 459.679 276.321C456.24 272.883 448 272 448 272C448 272 456.24 271.117 459.679 267.679C463.117 264.24 464 256 464 256Z" fill="#FFE934"/>
</g>
<g clipPath="url(#clip2_2029_7156)">
<path d="M16 202C16 202 16.4414 206.12 18.1607 207.839C19.88 209.559 24 210 24 210C24 210 19.88 210.441 18.1607 212.161C16.4414 213.88 16 218 16 218C16 218 15.5586 213.88 13.8393 212.161C12.12 210.441 8 210 8 210C8 210 12.12 209.559 13.8393 207.839C15.5586 206.12 16 202 16 202Z" fill="#FFE934"/>
</g>
<g clipPath="url(#clip3_2029_7156)">
<path d="M464 48C464 48 464.441 52.12 466.161 53.8393C467.88 55.5586 472 56 472 56C472 56 467.88 56.4414 466.161 58.1607C464.441 59.88 464 64 464 64C464 64 463.559 59.88 461.839 58.1607C460.12 56.4414 456 56 456 56C456 56 460.12 55.5586 461.839 53.8393C463.559 52.12 464 48 464 48Z" fill="#FFE934"/>
</g>
<defs>
<clipPath id="clip0_2029_7156">
<rect width="32" height="32" fill="white"/>
</clipPath>
<clipPath id="clip1_2029_7156">
<rect width="32" height="32" fill="white" transform="translate(448 256)"/>
</clipPath>
<clipPath id="clip2_2029_7156">
<rect width="16" height="16" fill="white" transform="translate(8 202)"/>
</clipPath>
<clipPath id="clip3_2029_7156">
<rect width="16" height="16" fill="white" transform="translate(456 48)"/>
</clipPath>
</defs>
</svg>
