<svg width="192" height="48" viewBox="0 0 192 48" fill="none" xmlns="http://www.w3.org/2000/svg">
<g clip-path="url(#clip0_2024_6385)">
<g clip-path="url(#clip1_2024_6385)">
<path d="M0.986328 47.9999H17.2603C24.9772 47.9999 31.2329 41.7442 31.2329 34.0273H14.9589C7.24207 34.0273 0.986328 40.2831 0.986328 47.9999Z" fill="#F22BB2"/>
<path d="M1.71436 13.9726V34.5205C9.43121 34.5205 15.687 28.2648 15.687 20.5479V0C7.9701 0 1.71436 6.25575 1.71436 13.9726Z" fill="#8C30F5"/>
<path d="M47.0137 0H30.7397C23.0228 0 16.7671 6.25575 16.7671 13.9726H33.0411C40.7579 13.9726 47.0137 7.71686 47.0137 0Z" fill="#FE9A22"/>
<path d="M47.0136 33.2055V12.6576C39.2968 12.6576 33.041 18.9133 33.041 26.6302V47.1781C40.7579 47.1781 47.0136 40.9224 47.0136 33.2055Z" fill="#2EC5CE"/>
</g>
<path d="M69.2572 30.72V12H63.7715V36H77.8286V30.72H69.2572Z" fill="white"/>
<path d="M92.3516 18.8571V20.4686C91.2201 19.1657 89.5401 18.3771 87.243 18.3771C82.7516 18.3771 79.0487 22.32 79.0487 27.4286C79.0487 32.5371 82.7516 36.48 87.243 36.48C89.5401 36.48 91.2201 35.6914 92.3516 34.3886V36H97.4944V18.8571H92.3516ZM88.2716 31.6114C85.9059 31.6114 84.1916 30 84.1916 27.4286C84.1916 24.8571 85.9059 23.2457 88.2716 23.2457C90.6373 23.2457 92.3516 24.8571 92.3516 27.4286C92.3516 30 90.6373 31.6114 88.2716 31.6114Z" fill="white"/>
<path d="M111.313 18.3771C109.05 18.3771 107.336 19.2 106.41 20.4686V18.8571H101.267V36H106.41V26.64C106.41 24.2057 107.713 23.1086 109.599 23.1086C111.245 23.1086 112.582 24.1028 112.582 26.2286V36H117.725V25.4743C117.725 20.8457 114.776 18.3771 111.313 18.3771Z" fill="white"/>
<path d="M133.702 12V20.4686C132.571 19.1657 130.891 18.3771 128.593 18.3771C124.102 18.3771 120.399 22.32 120.399 27.4286C120.399 32.5371 124.102 36.48 128.593 36.48C130.891 36.48 132.571 35.6914 133.702 34.3886V36H138.845V12H133.702ZM129.622 31.6114C127.256 31.6114 125.542 30 125.542 27.4286C125.542 24.8571 127.256 23.2457 129.622 23.2457C131.988 23.2457 133.702 24.8571 133.702 27.4286C133.702 30 131.988 31.6114 129.622 31.6114Z" fill="white"/>
<path d="M145.189 17.3486C146.869 17.3486 148.275 15.9428 148.275 14.2628C148.275 12.5828 146.869 11.1771 145.189 11.1771C143.509 11.1771 142.104 12.5828 142.104 14.2628C142.104 15.9428 143.509 17.3486 145.189 17.3486ZM142.618 36H147.761V18.8571H142.618V36Z" fill="white"/>
<path d="M160.953 16.4571V11.52C155.261 11.1771 152.621 14.0571 152.621 18.8571H150.324V23.7943H152.621V36H157.764V23.7943H160.953V18.8571H157.764C157.764 16.8686 159.033 16.2857 160.953 16.4571Z" fill="white"/>
<path d="M174.311 18.8571L171.088 29.3486L167.282 18.8571H161.625L168.448 35.2114C167.694 37.3028 166.562 38.0571 164.162 38.0571V42.8571C168.962 43.0971 172.014 40.9371 173.934 35.4857L179.796 18.8571H174.311Z" fill="white"/>
<path d="M184.752 7.19995H180.117V8.38795H181.809V13.5H183.051V8.38795H184.752V7.19995Z" fill="white"/>
<path d="M191.611 7.19995H190.333L188.533 10.179L186.724 7.19995H185.446V13.5H186.688V9.42295L188.461 12.339H188.605L190.378 9.41395V13.5H191.611V7.19995Z" fill="white"/>
</g>
<defs>
<clipPath id="clip0_2024_6385">
<rect width="192" height="48" fill="white"/>
</clipPath>
<clipPath id="clip1_2024_6385">
<rect width="48" height="48" fill="white"/>
</clipPath>
</defs>
</svg>
